<svg width="40" height="40" viewBox="0 0 40 40" fill="none" xmlns="http://www.w3.org/2000/svg">
<path d="M38.8861 15H34.9111C34.4583 15 34.0528 14.7278 33.8806 14.3083C33.8667 14.275 33.8528 14.2389 33.8389 14.2056C33.6639 13.7889 33.7611 13.3111 34.0778 12.9917L36.7111 10.3583C37.1472 9.925 37.1472 9.21667 36.7111 8.78333L31.2194 3.28889C30.7833 2.85278 30.075 2.85278 29.6417 3.28889L27.0083 5.92222C26.6889 6.24167 26.2111 6.33611 25.7944 6.16111C25.7611 6.14722 25.725 6.13333 25.6917 6.11944C25.2722 5.95 25 5.54167 25 5.09167V1.11667C25 0.5 24.5 0 23.8861 0H16.1167C15.5 0 15 0.5 15 1.11667V5.09167C15 5.54167 14.7306 5.94722 14.3139 6.11944C14.25 6.14444 14.1861 6.17222 14.1222 6.19722C13.7056 6.375 13.225 6.27778 12.9056 5.95833L10.3611 3.41389C9.925 2.97778 9.21945 2.97778 8.78333 3.41389L3.28889 8.90833C2.85278 9.34445 2.85278 10.05 3.28889 10.4861L5.88611 13.0833C6.20556 13.4 6.29722 13.8778 6.12778 14.2944C6.12778 14.2972 6.12778 14.3028 6.12222 14.3083C5.95 14.725 5.54444 15 5.09167 15H1.11667C0.5 15 0 15.5 0 16.1167V23.8833C0 24.5 0.5 25 1.11667 25H5.09167C5.54167 25 5.95 25.2722 6.11944 25.6917C6.13333 25.725 6.14722 25.7611 6.16389 25.7944C6.33611 26.2111 6.24167 26.6889 5.92222 27.0083L3.28889 29.6417C2.85278 30.075 2.85278 30.7833 3.28889 31.2167L8.78333 36.7111C9.21945 37.1472 9.925 37.1472 10.3611 36.7111L12.9944 34.0778C13.3111 33.7583 13.7917 33.6639 14.2056 33.8389C14.2417 33.8528 14.275 33.8667 14.3083 33.8806C14.7278 34.05 15 34.4583 15 34.9083V38.8833C15 39.5 15.5 40 16.1167 40H23.8861C24.5 40 25 39.5 25 38.8833V34.9083C25 34.4583 25.2722 34.0528 25.6889 33.8806C25.7528 33.8556 25.8167 33.8278 25.8806 33.8028C26.2944 33.625 26.7778 33.7222 27.0972 34.0417L29.6417 36.5861C30.075 37.0222 30.7833 37.0222 31.2194 36.5861L36.7111 31.0917C37.1472 30.6556 37.1472 29.95 36.7111 29.5139L34.1139 26.9167C33.7972 26.6 33.7028 26.1222 33.875 25.7056C33.875 25.7028 33.875 25.6972 33.8806 25.6917C34.05 25.275 34.4583 25 34.9083 25H38.8861C39.5 25 40 24.5 40 23.8833V16.1167C40 15.5 39.5 15 38.8861 15ZM20 27.5C15.8583 27.5 12.5 24.1417 12.5 20C12.5 15.8583 15.8583 12.5 20 12.5C24.1417 12.5 27.5 15.8583 27.5 20C27.5 24.1417 24.1417 27.5 20 27.5Z" fill="#666671"/>
</svg>
